<?xml version="1.0" encoding="utf-8"?>
<!-- Generator: Adobe Illustrator 16.0.0, SVG Export Plug-In . SVG Version: 6.00 Build 0)  -->
<!DOCTYPE svg PUBLIC "-//W3C//DTD SVG 1.1//EN" "http://www.w3.org/Graphics/SVG/1.1/DTD/svg11.dtd">
<svg version="1.1" id="Layer_1" xmlns="http://www.w3.org/2000/svg" xmlns:xlink="http://www.w3.org/1999/xlink" x="0px" y="0px"
	 width="2094.792px" height="1626.788px" viewBox="-160.518 -231.079 2094.792 1626.788"
	 enable-background="new -160.518 -231.079 2094.792 1626.788" xml:space="preserve">
<g opacity="0.1">
	<path fill="#F8F8F8" d="M1747.814,939.225c0,0-10.127-11.588-3.69-22.315c6.437-10.729,16.962-12.021,16.962-12.021
		C1755.284,913.476,1764.381,924.632,1747.814,939.225z"/>
	<path fill="#F8F8F8" d="M1763.979,961.506c-2.894,11.048-6.55,23.639-6.55,23.639s-12.461-18.601-9.015-30.041
		c2.56-8.474,9.015-21.461,9.015-21.461S1766.218,952.958,1763.979,961.506z"/>
	<path fill="#F8F8F8" d="M1591.031,895.357c0,0,18.813-20.678,35.408-17.894c16.595,2.787,39.082,10.223,39.082,10.223
		s-7.484,0-26.864,14.324C1622.063,914.272,1602.474,901.305,1591.031,895.357z"/>
	<path fill="#F8F8F8" d="M1623.108,944.83c-16.267,5.376-25.708-4.086-25.708-4.086s10.354,0,15.448-12.895
		c6.374-16.14,20.541-16.702,20.541-16.702S1639.375,939.454,1623.108,944.83z"/>
	<path fill="#F8F8F8" d="M1856.903,760.762c0,0,2.728,26.684-17.36,33.026c-20.089,6.344-34.909,5.659-34.909,5.659
		s15.786-9.179,19.961-21.598C1828.773,765.431,1856.903,760.762,1856.903,760.762z"/>
	<path fill="#F8F8F8" d="M1822.484,770.383c-7.094,16.443-42.54,46.324-42.54,46.324s19.479-38.888,5.089-56.054
		c-14.39-17.166,5.634-34.336,12.217-44.638C1797.25,716.017,1829.572,753.937,1822.484,770.383z"/>
	<path fill="#F8F8F8" d="M1756.34,821.598c-4.583-7.725,3.434-24.325,3.434-24.325s8.01,4.007,12.584,20.317
		c4.584,16.308-8.584,27.039-8.584,27.039C1766.925,834.184,1760.916,829.325,1756.34,821.598z"/>
	<path fill="#F8F8F8" d="M1739.806,874.529c5.803-8.587-4.299-32.479,12.27-47.07c0,0,3.442,9.808,3.689,22.316
		C1756.079,865.565,1739.806,874.529,1739.806,874.529z"/>
	<path fill="#F8F8F8" d="M1751.535,897.418c-0.15-0.141-0.321-0.249-0.506-0.343
		C1751.355,897.289,1751.535,897.418,1751.535,897.418z"/>
	<path fill="#F8F8F8" d="M1687.034,917.899c8.616-2.021,23.09-2.924,23.09-2.924s-12.328,17.268-20.853,19.6
		c-11.018,3.021-23.75,6.152-23.75,6.152S1675.399,920.632,1687.034,917.899z"/>
	<path fill="#F8F8F8" d="M1681.795,896.807c11.831-12.124,27.706-6.083,27.706-6.083c-10.622,2.495-11.823,10.126-16.227,17.951
		c-4.398,7.833-22.781,9.189-22.781,9.189S1669.96,908.924,1681.795,896.807z"/>
	<path fill="#F8F8F8" d="M1700.485,909.44c0,0,6.96-7.584,17.48-14.355c14.404-9.273,29.974-0.035,33.023,1.963
		C1744.809,894.09,1720.75,916.271,1700.485,909.44z"/>
	<path fill="#F8F8F8" d="M1704.757,806.192c0,0-8.942-11.842-15.064-31.996c-6.12-20.159,17.433-32.991,17.433-32.991
		s12.047,25.847,4.165,36.311C1703.407,787.979,1704.757,806.192,1704.757,806.192z"/>
	<path fill="#F8F8F8" d="M1716.564,780.396c10.73-12.162,6.438-32.908,6.438-32.908s13.021,16.886,15.021,25.749
		c3.493,15.45-5.718,20.034-9.296,30.405c-3.582,10.371,9.296,17.527,9.296,31.828c0,14.306-2.263,27.918-2.263,27.918
		s-10.614-30.778-19.196-41.508C1707.98,811.152,1705.835,792.552,1716.564,780.396z"/>
	<path fill="#F8F8F8" d="M1735.914,805.178c2.892-11.048,6.55-23.639,6.55-23.639s12.46,18.601,9.011,30.041
		c-2.558,8.474-9.011,21.461-9.011,21.461S1733.67,813.729,1735.914,805.178z"/>
	<path fill="#F8F8F8" d="M1747.527,740.618c-2.552,14.741-3.72,29.765-3.72,29.765s-20.05-18.783-19.759-36.629
		c0.263-15.953,11.845-29.186,14.756-40.342C1738.805,693.412,1750.067,725.89,1747.527,740.618z"/>
	<path fill="#F8F8F8" d="M1702.616,816.707c-7.372-11.471-29.252-12.563-44.579-18.682c-15.323-6.119-15.003-66.131-15.003-66.131
		c7.731,10.873,41.03,27.665,44.789,49.645C1690.891,799.467,1702.616,816.707,1702.616,816.707z"/>
	<path fill="#F8F8F8" d="M1704.596,824.742c21.805,1.985,24.273,32.617,24.273,32.617c-7.473-7.949-20.223-10.526-29.199-10.431
		c-8.983,0.109-19.351-11.541-19.351-11.541S1687.727,823.207,1704.596,824.742z"/>
	<path fill="#F8F8F8" d="M1723.786,861.519c6.073,10.939-0.453,26.17-0.453,26.17c0-14.306-16.363-12.489-20.717-34.131
		C1702.616,853.558,1717.715,850.58,1723.786,861.519z"/>
	<path fill="#F8F8F8" d="M1754.923,790.981c-10.849-5.436,9.419-43.494,9.419-43.494s0.997,8.878,13.588,20.603
		c12.596,11.735-4.603,39.198-4.603,39.198C1772.006,801.278,1765.783,796.412,1754.923,790.981z"/>
	<path fill="#F8F8F8" d="M1640.453,786.689c9.15,3.001,14.732,15.447,14.732,15.447s-15.299,3.864-26.887,2.503
		c-11.588-1.359-22.746-9.366-20.171-10.227C1610.705,793.555,1631.304,783.686,1640.453,786.689z"/>
	<path fill="#F8F8F8" d="M1660.517,805.488c16.456-5.037,37.148,14.053,37.148,14.053c-5.864-1.858-12.349,6.811-22.482,13.5
		c-10.13,6.679-34.729-17.698-34.729-17.698S1644.064,810.53,1660.517,805.488z"/>
	<path fill="#F8F8F8" d="M1688.563,846.137c6.06,6.453,14.078,18.535,14.078,18.535s-21.121-2.045-27.404-8.257
		c-8.118-8.031-17.199-17.492-17.199-17.492S1680.378,837.43,1688.563,846.137z"/>
	<path fill="#F8F8F8" d="M1670.313,861.869c7.191,8.283,19.828,0.711,32.211,7.858c12.394,7.156,16.775,19.601,16.775,19.601
		s-25.687-9.877-39.271-7.811c-13.584,2.072-30.769-5.372-35.929-20.741c-5.17-15.37-25.279-22.028-25.279-22.028
		s21.131-2.834,29.811-0.133C1663.758,843.315,1663.124,853.581,1670.313,861.869z"/>
	<path fill="#F8F8F8" d="M1640.453,911.489c3.866-16.773,35.771-22.271,35.771-22.271c-4.542,4.148-9.479,23.872-8.754,35.992
		c0.718,12.113-27.323,23.358-27.323,23.358S1636.595,928.259,1640.453,911.489z"/>
	<path fill="#F8F8F8" d="M1660.552,948.721c11.636-10.752,20.207-5.067,30.979-7.151c10.768-2.083,12.937-19.482,25.322-26.631
		c12.392-7.152,25.13-8.048,25.13-8.048s-18.65,13.702-24.559,37.939c-3.253,13.353-24.052,22.106-39.943,18.892
		c-15.899-3.211-31.719,10.882-31.719,10.882S1653.874,954.882,1660.552,948.721z"/>
	<path fill="#F8F8F8" d="M1736.116,922.055c-3.149,10.449,2.855,15.309,7.433,23.031c4.584,7.725-3.433,24.327-3.433,24.327
		s-8.009-4.008-12.583-20.319C1722.948,932.783,1736.116,922.055,1736.116,922.055z"/>
	<path fill="#F8F8F8" d="M1760.086,853.811c0,0,21.393-17.31,26.396-30.105c4.999-12.797,20.035-23.957,35.926-20.742
		c15.897,3.211,31.72-10.88,31.72-10.88s-8.112,19.72-14.791,25.881c-11.634,10.752-20.207,5.068-30.977,7.152
		c-10.771,2.087-10.535,16.815-22.917,23.965C1773.052,856.236,1760.086,853.811,1760.086,853.811z"/>
	<path fill="#F8F8F8" d="M1829.396,848.819c0,0,0.534,8.939-11.304,21.058c-11.831,12.124-27.706,6.087-27.706,6.087
		c10.622-2.499,11.825-10.13,16.228-17.955C1811.012,850.176,1829.396,848.819,1829.396,848.819z"/>
	<path fill="#F8F8F8" d="M1789.767,851.711c0,0,12.33-17.271,20.854-19.603c11.015-3.018,23.747-6.149,23.747-6.149
		s-9.877,20.093-21.512,22.825C1804.239,850.806,1789.767,851.711,1789.767,851.711z"/>
	<path fill="#F8F8F8" d="M1832.423,841.473c-0.721-12.111,43.224-28.187,43.224-28.187s-6.725,14.573-10.584,31.343
		c-3.865,16.771-37.563,20.938-37.563,20.938C1832.042,861.418,1833.146,853.597,1832.423,841.473z"/>
	<path fill="#F8F8F8" d="M1799.406,857.247c0,0-4.974,14.564-17.483,14.354c-12.513-0.21-18.888-8.681-18.888-8.681
		C1773.371,863.653,1778.482,850.195,1799.406,857.247z"/>
	<path fill="#F8F8F8" d="M1775.221,877.465c4.534,9.317,17.7,14.018,22.053,35.665c0,0-13.241,1.714-21.171-7.965
		C1763.035,889.219,1775.221,877.465,1775.221,877.465z"/>
	<path fill="#F8F8F8" d="M1800.219,919.754c8.981-0.108,19.352,15.137,19.352,15.137s-7.476,4.93-23.89,0.738
		c-16.416-4.187-19.125-20.956-19.125-20.956C1784.03,922.626,1791.24,919.851,1800.219,919.754z"/>
	<path fill="#F8F8F8" d="M1827.444,933.837c10.128-6.683,33.885,11.98,33.885,11.98s-3.681,4.587-20.061,9.854
		c-21.698,6.98-44.558-11.215-44.558-11.215C1802.578,946.314,1817.308,940.522,1827.444,933.837z"/>
	<path fill="#F8F8F8" d="M1811.328,920.547c-6.059-6.449-14.078-18.535-14.078-18.535s21.121,2.045,27.403,8.262
		c8.12,8.026,17.198,17.491,17.198,17.491S1819.512,929.258,1811.328,920.547z"/>
	<path fill="#F8F8F8" d="M1829.576,904.818c-7.189-8.287-19.828-0.716-32.211-7.863c-12.394-7.152-16.773-19.6-16.773-19.6
		s25.686,9.877,39.271,7.81c13.582-2.068,30.766,5.372,35.928,20.742c5.168,15.374,25.278,22.027,25.278,22.027
		s-21.13,2.834-29.812,0.134C1836.131,923.368,1836.767,913.103,1829.576,904.818z"/>
	<path fill="#F8F8F8" d="M1872.502,917.864c-8.583-11.288-20.929-28.646-20.929-28.646c12.346,4.764,31.802-3.977,43.817-4.47
		c12.017-0.493,17.74,28.497,17.74,28.497S1881.085,929.156,1872.502,917.864z"/>
	<path fill="#F8F8F8" d="M1905.121,867.373c-5.162,8.07-17.168,20.167-41.201,17.092c-24.034-3.07-46.923-7.108-46.923-7.108
		c67.808-8.691,42.909-42.306,70.099-34.063c12.017,3.646,26.037,1.337,26.037,1.337S1916.16,850.121,1905.121,867.373z"/>
	<path fill="#F8F8F8" d="M1872.724,808.84c-10.051,0.509-28.021,12.707-28.021,12.707s4.198-20.21,14.691-26.76
		c9.387-5.854,33.097-15.086,40.575-17.399C1899.97,777.388,1888.807,808.023,1872.724,808.84z"/>
	<path fill="#F8F8F8" d="M1625.133,814.079c11.488,9.574,23.914,18.095,23.914,18.095s-26.291,7.978-41.597-1.197
		c-13.688-8.209-19.354-24.851-27.562-32.95C1579.89,798.025,1613.65,804.513,1625.133,814.079z"/>
	<path fill="#F8F8F8" d="M1618.821,846.888c20.989,1.758,24.213,28.389,24.213,28.389s-28.466,1.647-35.28-9.547
		c-6.811-11.191-24.232-16.664-24.232-16.664S1597.83,845.127,1618.821,846.888z"/>
	<path fill="#F8F8F8" d="M1633.345,980.562c-13.951,7.752-31.194,4.334-42.313,7.395c0,0,22.497-25.994,36.523-31.156
		c14.037-5.162,27.631-11.662,27.631-11.662S1648.947,971.893,1633.345,980.562z"/>
	<path fill="#F8F8F8" d="M1675.086,1010.598c-7.854,14.054-34.634,13.226-34.634,13.226s11.485-14.534,10.661-27.519
		c-0.826-12.982,10.902-23.237,19.826-25.384c8.926-2.146,8.926-2.146,8.926-2.146
		C1669.712,975.469,1682.936,996.546,1675.086,1010.598z"/>
	<path fill="#F8F8F8" d="M1692.785,1059.935c0,0,2.322-28.613-7.975-58.941c-10.302-30.328,22.896-33.302,30.046-46.922
		c0,0-1.58,38.396,4.442,53.216C1724.092,1019.076,1692.785,1059.935,1692.785,1059.935z"/>
	<path fill="#F8F8F8" d="M1744.962,1032.463c0,0,0.595-22.141-11.996-33.869c-12.592-11.73-6.405-39.198-6.405-39.198
		c1.325,6.011,7.546,10.877,18.407,16.312C1755.816,981.137,1744.962,1032.463,1744.962,1032.463z"/>
	<path fill="#F8F8F8" d="M1761.085,1073.271c0,0-11.262-32.478-8.72-47.205c2.548-14.737,3.717-29.762,3.717-29.762
		s20.05,18.779,19.759,36.625C1775.577,1048.887,1763.995,1062.115,1761.085,1073.271z"/>
	<path fill="#F8F8F8" d="M1789.767,986.594c-10.729,12.164,0,37.862,0,37.862s-25.899-22.142-27.899-31.009
		c-3.493-15.451,5.716-20.035,9.296-30.406c3.582-10.367-9.296-17.522-9.296-31.828c0-14.305,8.585-24.322,8.585-24.322
		s4.291,27.185,12.872,37.912C1791.911,955.531,1800.496,974.442,1789.767,986.594z"/>
	<path fill="#F8F8F8" d="M1822.484,1019.877c-0.91,17.741-10.416,30.328-10.416,30.328s-17.774-15.448-17.297-30.328
		c0.479-14.877,3.291-34.732,3.291-34.732C1801.545,996.417,1823.393,1002.136,1822.484,1019.877z"/>
	<path fill="#F8F8F8" d="M1832.72,1032.463c0,0,2.688-24.602-10.235-30.327c-12.928-5.719-29.016-33.341-32.718-61.406
		c0,0,17.429,32.094,52.085,33.873C1876.506,976.387,1832.72,1032.463,1832.72,1032.463z"/>
	<path fill="#F8F8F8" d="M1855.045,974.603c-6.292-7.657-28.894-8.93-28.894-8.93s23.574-13.359,35.177-8.402
		c11.602,4.951,23.476,19.976,23.476,19.976S1862.528,983.718,1855.045,974.603z"/>
	<path fill="#F8F8F8" d="M1874.755,952.608c-11.489-9.578-23.914-18.1-23.914-18.1s26.291-7.977,41.6,1.201
		c13.686,8.205,19.353,24.851,27.561,32.947C1920,968.658,1886.24,962.175,1874.755,952.608z"/>
</g>
<g opacity="0.1">
	<path fill="#F8F8F8" d="M1692.793,331.828c0,0-14.201-16.251-5.176-31.297c9.025-15.046,23.788-16.857,23.788-16.857
		C1703.27,295.717,1716.028,311.363,1692.793,331.828z"/>
	<path fill="#F8F8F8" d="M1715.463,363.076c-4.058,15.494-9.186,33.151-9.186,33.151s-17.476-26.085-12.643-42.13
		c3.589-11.883,12.643-30.097,12.643-30.097S1718.604,351.088,1715.463,363.076z"/>
	<path fill="#F8F8F8" d="M1472.916,270.307c0,0,26.386-28.998,49.658-25.093c23.271,3.909,54.811,14.336,54.811,14.336
		s-10.497,0-37.676,20.089C1516.436,296.834,1488.963,278.648,1472.916,270.307z"/>
	<path fill="#F8F8F8" d="M1517.901,339.689c-22.812,7.539-36.054-5.73-36.054-5.73s14.521,0,21.666-18.082
		c8.939-22.635,28.809-23.425,28.809-23.425S1540.714,332.15,1517.901,339.689z"/>
	<path fill="#F8F8F8" d="M1845.784,81.546c0,0,3.825,37.42-24.347,46.317c-28.175,8.897-48.959,7.937-48.959,7.937
		s22.14-12.871,27.994-30.288C1806.333,88.093,1845.784,81.546,1845.784,81.546z"/>
	<path fill="#F8F8F8" d="M1797.513,95.039c-9.946,23.061-59.659,64.967-59.659,64.967s27.319-54.538,7.138-78.612
		c-20.18-24.074,7.9-48.153,17.133-62.6C1762.124,18.793,1807.454,71.974,1797.513,95.039z"/>
	<path fill="#F8F8F8" d="M1704.751,166.864c-6.428-10.833,4.813-34.115,4.813-34.115s11.232,5.619,17.649,28.495
		c6.428,22.869-12.04,37.92-12.04,37.92C1719.596,184.515,1711.167,177.701,1704.751,166.864z"/>
	<path fill="#F8F8F8" d="M1681.563,241.097c8.138-12.042-6.028-45.548,17.207-66.013c0,0,4.826,13.755,5.176,31.297
		C1704.384,228.526,1681.563,241.097,1681.563,241.097z"/>
	<path fill="#F8F8F8" d="M1698.011,273.197c-0.211-0.197-0.45-0.349-0.709-0.48C1697.759,273.017,1698.011,273.197,1698.011,273.197
		z"/>
	<path fill="#F8F8F8" d="M1607.553,301.921c12.084-2.835,32.383-4.099,32.383-4.099s-17.291,24.216-29.243,27.486
		c-15.451,4.236-33.309,8.629-33.309,8.629S1591.236,305.753,1607.553,301.921z"/>
	<path fill="#F8F8F8" d="M1600.207,272.34c16.593-17.003,38.855-8.531,38.855-8.531c-14.896,3.5-16.582,14.201-22.756,25.176
		c-6.17,10.985-31.949,12.888-31.949,12.888S1583.61,289.333,1600.207,272.34z"/>
	<path fill="#F8F8F8" d="M1626.417,290.058c0,0,9.761-10.636,24.517-20.133c20.201-13.007,42.035-0.049,46.313,2.753
		C1688.58,268.53,1654.837,299.637,1626.417,290.058z"/>
	<path fill="#F8F8F8" d="M1632.409,145.259c0,0-12.541-16.606-21.128-44.872c-8.583-28.272,24.447-46.269,24.447-46.269
		s16.896,36.249,5.843,50.923C1630.515,119.718,1632.409,145.259,1632.409,145.259z"/>
	<path fill="#F8F8F8" d="M1648.968,109.082c15.05-17.058,9.028-46.153,9.028-46.153s18.26,23.681,21.066,36.111
		c4.899,21.669-8.02,28.098-13.036,42.643c-5.023,14.545,13.036,24.581,13.036,44.637c0,20.062-3.173,39.153-3.173,39.153
		s-14.888-43.166-26.923-58.211C1636.928,152.215,1633.921,126.129,1648.968,109.082z"/>
	<path fill="#F8F8F8" d="M1676.104,143.836c4.057-15.494,9.187-33.152,9.187-33.152s17.475,26.086,12.638,42.13
		c-3.587,11.884-12.638,30.098-12.638,30.098S1672.958,155.83,1676.104,143.836z"/>
	<path fill="#F8F8F8" d="M1692.391,53.296c-3.578,20.673-5.215,41.743-5.215,41.743s-28.118-26.342-27.711-51.37
		c0.369-22.373,16.611-40.931,20.694-56.577C1680.16-12.908,1695.954,32.64,1692.391,53.296z"/>
	<path fill="#F8F8F8" d="M1629.406,160.006c-10.338-16.087-41.024-17.62-62.52-26.2c-21.49-8.582-21.041-92.743-21.041-92.743
		c10.846,15.249,57.542,38.799,62.814,69.622C1612.963,135.827,1629.406,160.006,1629.406,160.006z"/>
	<path fill="#F8F8F8" d="M1632.183,171.274c30.579,2.786,34.043,45.744,34.043,45.744c-10.479-11.149-28.359-14.763-40.95-14.627
		c-12.599,0.153-27.139-16.186-27.139-16.186S1608.526,169.121,1632.183,171.274z"/>
	<path fill="#F8F8F8" d="M1659.096,222.85c8.519,15.343-0.637,36.701-0.637,36.701c0-20.062-22.947-17.515-29.054-47.865
		C1629.406,211.686,1650.582,207.51,1659.096,222.85z"/>
	<path fill="#F8F8F8" d="M1702.764,123.927c-15.215-7.622,13.209-60.998,13.209-60.998s1.399,12.451,19.058,28.894
		c17.663,16.458-6.455,54.973-6.455,54.973C1726.722,138.368,1717.994,131.543,1702.764,123.927z"/>
	<path fill="#F8F8F8" d="M1542.227,117.908c12.832,4.208,20.661,21.665,20.661,21.665s-21.454,5.42-37.704,3.51
		c-16.252-1.907-31.901-13.136-28.289-14.342C1500.507,127.536,1529.396,113.695,1542.227,117.908z"/>
	<path fill="#F8F8F8" d="M1570.366,144.272c23.078-7.064,52.098,19.708,52.098,19.708c-8.224-2.606-17.317,9.551-31.529,18.933
		c-14.207,9.367-48.707-24.821-48.707-24.821S1547.291,151.343,1570.366,144.272z"/>
	<path fill="#F8F8F8" d="M1609.698,201.278c8.498,9.051,19.743,25.994,19.743,25.994s-29.622-2.868-38.435-11.58
		c-11.385-11.263-24.12-24.532-24.12-24.532S1598.219,189.067,1609.698,201.278z"/>
	<path fill="#F8F8F8" d="M1584.104,223.342c10.086,11.617,27.808,0.997,45.174,11.022c17.38,10.037,23.525,27.487,23.525,27.487
		S1616.78,248,1597.73,250.899c-19.053,2.906-43.15-7.533-50.388-29.089c-7.251-21.556-35.454-30.893-35.454-30.893
		s29.636-3.974,41.808-0.187C1574.912,197.322,1574.021,211.719,1584.104,223.342z"/>
	<path fill="#F8F8F8" d="M1542.227,292.931c5.423-23.523,50.166-31.233,50.166-31.233c-6.37,5.818-13.295,33.479-12.277,50.477
		c1.005,16.988-38.318,32.759-38.318,32.759S1536.816,316.449,1542.227,292.931z"/>
	<path fill="#F8F8F8" d="M1570.415,345.146c16.318-15.079,28.339-7.108,43.445-10.031c15.102-2.921,18.143-27.323,35.515-37.348
		c17.377-10.031,35.241-11.285,35.241-11.285s-26.156,19.216-34.44,53.208c-4.563,18.726-33.73,31.003-56.02,26.494
		c-22.297-4.503-44.481,15.26-44.481,15.26S1561.048,353.787,1570.415,345.146z"/>
	<path fill="#F8F8F8" d="M1676.387,307.749c-4.416,14.654,4.006,21.468,10.424,32.3c6.43,10.833-4.813,34.116-4.813,34.116
		s-11.23-5.62-17.647-28.496C1657.92,322.794,1676.387,307.749,1676.387,307.749z"/>
	<path fill="#F8F8F8" d="M1710.004,212.041c0,0,30.002-24.275,37.02-42.222c7.011-17.947,28.099-33.598,50.384-29.089
		c22.296,4.503,44.483-15.259,44.483-15.259s-11.377,27.656-20.742,36.296c-16.315,15.079-28.34,7.108-43.442,10.031
		c-15.104,2.926-14.774,23.583-32.14,33.609C1728.189,215.442,1710.004,212.041,1710.004,212.041z"/>
	<path fill="#F8F8F8" d="M1807.208,205.041c0,0,0.749,12.539-15.853,29.532c-16.593,17.003-38.856,8.537-38.856,8.537
		c14.896-3.505,16.585-14.207,22.757-25.181C1781.424,206.943,1807.208,205.041,1807.208,205.041z"/>
	<path fill="#F8F8F8" d="M1751.629,209.096c0,0,17.293-24.221,29.244-27.492c15.447-4.23,33.305-8.624,33.305-8.624
		s-13.852,28.179-30.168,32.011C1771.926,207.827,1751.629,209.096,1751.629,209.096z"/>
	<path fill="#F8F8F8" d="M1811.453,194.738c-1.011-16.987,60.618-39.53,60.618-39.53s-9.431,20.438-14.845,43.957
		c-5.422,23.518-52.679,29.362-52.679,29.362C1810.918,222.709,1812.466,211.741,1811.453,194.738z"/>
	<path fill="#F8F8F8" d="M1765.148,216.86c0,0-6.975,20.427-24.52,20.133c-17.55-0.295-26.49-12.174-26.49-12.174
		C1728.635,225.844,1735.804,206.97,1765.148,216.86z"/>
	<path fill="#F8F8F8" d="M1731.23,245.214c6.357,13.067,24.822,19.657,30.927,50.018c0,0-18.57,2.404-29.689-11.17
		C1714.139,261.698,1731.23,245.214,1731.23,245.214z"/>
	<path fill="#F8F8F8" d="M1766.29,304.522c12.595-0.154,27.137,21.228,27.137,21.228s-10.48,6.912-33.502,1.036
		c-23.021-5.872-26.821-29.39-26.821-29.39C1743.584,308.549,1753.695,304.657,1766.29,304.522z"/>
	<path fill="#F8F8F8" d="M1804.469,324.272c14.203-9.372,47.521,16.802,47.521,16.802s-5.162,6.433-28.132,13.82
		c-30.434,9.79-62.489-15.728-62.489-15.728C1769.596,341.771,1790.255,333.648,1804.469,324.272z"/>
	<path fill="#F8F8F8" d="M1781.868,305.634c-8.498-9.044-19.744-25.994-19.744-25.994s29.621,2.868,38.432,11.585
		c11.389,11.258,24.12,24.532,24.12,24.532S1793.346,317.851,1781.868,305.634z"/>
	<path fill="#F8F8F8" d="M1807.459,283.575c-10.083-11.622-27.808-1.002-45.175-11.027c-17.379-10.03-23.522-27.487-23.522-27.487
		s36.021,13.852,55.073,10.952c19.049-2.901,43.147,7.534,50.387,29.09c7.247,21.561,35.451,30.893,35.451,30.893
		s-29.632,3.975-41.807,0.186C1816.653,309.59,1817.544,295.193,1807.459,283.575z"/>
	<path fill="#F8F8F8" d="M1867.662,301.872c-12.037-15.831-29.353-40.174-29.353-40.174c17.314,6.679,44.6-5.577,61.452-6.268
		c16.853-0.692,24.879,39.965,24.879,39.965S1879.698,317.708,1867.662,301.872z"/>
	<path fill="#F8F8F8" d="M1913.406,231.061c-7.24,11.318-24.077,28.283-57.781,23.97c-33.707-4.306-65.808-9.97-65.808-9.97
		c95.097-12.189,60.178-59.33,98.31-47.772c16.852,5.112,36.515,1.875,36.515,1.875S1928.887,206.867,1913.406,231.061z"/>
	<path fill="#F8F8F8" d="M1867.972,148.972c-14.095,0.714-39.299,17.821-39.299,17.821s5.89-28.343,20.605-37.529
		c13.162-8.21,46.415-21.157,56.902-24.402C1906.182,104.862,1890.527,147.827,1867.972,148.972z"/>
	<path fill="#F8F8F8" d="M1520.742,156.32c16.111,13.427,33.538,25.376,33.538,25.376s-36.871,11.187-58.337-1.679
		c-19.194-11.512-27.143-34.851-38.651-46.211C1457.292,133.806,1504.638,142.903,1520.742,156.32z"/>
	<path fill="#F8F8F8" d="M1511.889,202.332c29.438,2.463,33.957,39.812,33.957,39.812s-39.922,2.312-49.479-13.389
		c-9.552-15.695-33.983-23.37-33.983-23.37S1482.451,199.863,1511.889,202.332z"/>
	<path fill="#F8F8F8" d="M1532.258,389.801c-19.563,10.87-43.749,6.078-59.343,10.369c0,0,31.551-36.455,51.224-43.695
		c19.687-7.239,38.749-16.355,38.749-16.355S1554.139,377.643,1532.258,389.801z"/>
	<path fill="#F8F8F8" d="M1590.797,431.924c-11.015,19.708-48.57,18.546-48.57,18.546s16.107-20.383,14.951-38.591
		c-1.158-18.209,15.29-32.59,27.806-35.6c12.518-3.008,12.518-3.008,12.518-3.008
		C1583.261,382.658,1601.806,412.218,1590.797,431.924z"/>
	<path fill="#F8F8F8" d="M1615.619,501.116c0,0,3.257-40.129-11.184-82.663c-14.446-42.533,32.111-46.703,42.138-65.804
		c0,0-2.216,53.849,6.229,74.631C1659.525,443.815,1615.619,501.116,1615.619,501.116z"/>
	<path fill="#F8F8F8" d="M1688.794,462.589c0,0,0.835-31.051-16.823-47.499c-17.66-16.453-8.982-54.974-8.982-54.974
		c1.857,8.429,10.582,15.253,25.814,22.875C1704.016,390.607,1688.794,462.589,1688.794,462.589z"/>
	<path fill="#F8F8F8" d="M1711.406,519.82c0,0-15.794-45.548-12.229-66.204c3.574-20.668,5.213-41.737,5.213-41.737
		s28.12,26.337,27.712,51.365C1731.729,485.622,1715.486,504.175,1711.406,519.82z"/>
	<path fill="#F8F8F8" d="M1751.629,398.26c-15.048,17.059,0,53.1,0,53.1s-36.322-31.052-39.128-43.488
		c-4.899-21.668,8.017-28.098,13.037-42.642c5.022-14.54-13.037-24.575-13.037-44.636c0-20.062,12.04-34.111,12.04-34.111
		s6.02,38.123,18.052,53.169C1754.637,354.697,1766.676,381.219,1751.629,398.26z"/>
	<path fill="#F8F8F8" d="M1797.513,444.938c-1.275,24.88-14.607,42.531-14.607,42.531s-24.927-21.664-24.257-42.531
		c0.674-20.865,4.614-48.711,4.614-48.711C1768.149,412.037,1798.788,420.056,1797.513,444.938z"/>
	<path fill="#F8F8F8" d="M1811.87,462.589c0,0,3.767-34.502-14.356-42.533c-18.129-8.019-40.69-46.757-45.884-86.119
		c0,0,24.442,45.01,73.046,47.506C1873.277,383.945,1811.87,462.589,1811.87,462.589z"/>
	<path fill="#F8F8F8" d="M1843.179,381.443c-8.823-10.74-40.521-12.523-40.521-12.523s33.063-18.737,49.333-11.785
		c16.271,6.945,32.923,28.014,32.923,28.014S1853.672,394.227,1843.179,381.443z"/>
	<path fill="#F8F8F8" d="M1870.82,350.598c-16.112-13.433-33.538-25.382-33.538-25.382s36.872-11.187,58.34,1.684
		c19.192,11.507,27.142,34.852,38.651,46.207C1934.274,373.107,1886.926,364.014,1870.82,350.598z"/>
</g>
<g opacity="0.1">
	<path fill="#F8F8F8" d="M480.934,1082.507c0,0-23.659-27.081-8.622-52.145c15.039-25.071,39.631-28.083,39.631-28.083
		C498.388,1022.343,519.646,1048.408,480.934,1082.507z"/>
	<path fill="#F8F8F8" d="M518.704,1134.563c-6.762,25.815-15.303,55.232-15.303,55.232s-29.114-43.463-21.063-70.188
		c5.979-19.809,21.063-50.148,21.063-50.148S523.938,1114.596,518.704,1134.563z"/>
	<path fill="#F8F8F8" d="M114.61,980.009c0,0,43.958-48.312,82.731-41.809c38.772,6.513,91.318,23.884,91.318,23.884
		s-17.491,0-62.772,33.471C187.114,1024.203,141.347,993.901,114.61,980.009z"/>
	<path fill="#F8F8F8" d="M189.557,1095.601c-38.004,12.563-60.067-9.546-60.067-9.546s24.192,0,36.095-30.132
		c14.895-37.707,47.998-39.021,47.998-39.021S227.564,1083.037,189.557,1095.601z"/>
	<path fill="#F8F8F8" d="M735.823,665.522c0,0,6.373,62.344-40.563,77.171c-46.938,14.818-81.565,13.223-81.565,13.223
		s36.884-21.448,46.638-50.462C670.097,676.434,735.823,665.522,735.823,665.522z"/>
	<path fill="#F8F8F8" d="M655.402,688.003c-16.572,38.422-99.396,108.235-99.396,108.235s45.519-90.857,11.891-130.969
		c-33.619-40.111,13.164-80.229,28.547-104.293C596.443,560.978,671.964,649.575,655.402,688.003z"/>
	<path fill="#F8F8F8" d="M500.856,807.669c-10.708-18.051,8.021-56.84,8.021-56.84s18.714,9.359,29.407,47.473
		c10.708,38.099-20.062,63.18-20.062,63.18C525.588,837.072,511.545,825.725,500.856,807.669z"/>
	<path fill="#F8F8F8" d="M462.224,931.344c13.558-20.067-10.044-75.886,28.665-109.98c0,0,8.043,22.913,8.624,52.141
		C500.245,910.399,462.224,931.344,462.224,931.344z"/>
	<path fill="#F8F8F8" d="M489.627,984.823c-0.35-0.33-0.749-0.587-1.182-0.806C489.209,984.521,489.627,984.823,489.627,984.823z"/>
	<path fill="#F8F8F8" d="M338.92,1032.675c20.133-4.723,53.952-6.827,53.952-6.827s-28.806,40.347-48.724,45.792
		c-25.738,7.055-55.488,14.379-55.488,14.379S311.737,1039.062,338.92,1032.675z"/>
	<path fill="#F8F8F8" d="M326.682,983.397c27.644-28.336,64.735-14.217,64.735-14.217c-24.818,5.828-27.625,23.657-37.915,41.942
		c-10.275,18.3-53.227,21.47-53.227,21.47S299.028,1011.703,326.682,983.397z"/>
	<path fill="#F8F8F8" d="M370.35,1012.912c0,0,16.264-17.72,40.847-33.543c33.654-21.668,70.032-0.082,77.16,4.587
		C473.914,977.046,417.698,1028.872,370.35,1012.912z"/>
	<path fill="#F8F8F8" d="M380.333,771.672c0,0-20.894-27.665-35.201-74.758c-14.3-47.104,40.731-77.085,40.731-77.085
		s28.146,60.388,9.729,84.838C377.176,729.116,380.333,771.672,380.333,771.672z"/>
	<path fill="#F8F8F8" d="M407.92,711.396c25.073-28.413,15.039-76.889,15.039-76.889s30.422,39.452,35.101,60.161
		c8.162,36.103-13.36,46.813-21.721,71.048c-8.37,24.23,21.721,40.951,21.721,74.364c0,33.423-5.286,65.233-5.286,65.233
		s-24.805-71.923-44.854-96.986C387.863,783.265,382.85,739.802,407.92,711.396z"/>
	<path fill="#F8F8F8" d="M453.128,769.301c6.756-25.813,15.305-55.23,15.305-55.23s29.112,43.461,21.054,70.188
		c-5.978,19.797-21.054,50.146-21.054,50.146S447.887,789.28,453.128,769.301z"/>
	<path fill="#F8F8F8" d="M480.263,618.457c-5.959,34.442-8.688,69.546-8.688,69.546s-46.848-43.887-46.166-85.588
		c0.611-37.271,27.674-68.19,34.476-94.259C459.884,508.156,486.199,584.045,480.263,618.457z"/>
	<path fill="#F8F8F8" d="M375.329,796.238c-17.228-26.804-68.349-29.354-104.161-43.647
		c-35.802-14.299-35.055-154.516-35.055-154.516c18.068,25.402,95.869,64.639,104.651,115.994
		C347.935,755.96,375.329,796.238,375.329,796.238z"/>
	<path fill="#F8F8F8" d="M379.956,815.011c50.944,4.644,56.713,76.214,56.713,76.214c-17.456-18.574-47.246-24.594-68.223-24.367
		c-20.991,0.252-45.212-26.973-45.212-26.973S340.542,811.427,379.956,815.011z"/>
	<path fill="#F8F8F8" d="M424.792,900.941c14.189,25.562-1.059,61.143-1.059,61.143c0-33.421-38.232-29.177-48.404-79.742
		C375.329,882.342,410.608,875.382,424.792,900.941z"/>
	<path fill="#F8F8F8" d="M497.545,736.13c-25.348-12.693,22.008-101.623,22.008-101.623s2.329,20.745,31.75,48.141
		c29.428,27.417-10.755,91.586-10.755,91.586C537.461,760.188,522.919,748.818,497.545,736.13z"/>
	<path fill="#F8F8F8" d="M230.084,726.101c21.379,7.016,34.421,36.097,34.421,36.097s-35.742,9.027-62.818,5.849
		s-53.147-21.885-47.129-23.895C160.576,742.141,208.708,719.083,230.084,726.101z"/>
	<path fill="#F8F8F8" d="M276.964,770.023c38.451-11.771,86.799,32.84,86.799,32.84c-13.705-4.345-28.853,15.912-52.53,31.54
		c-23.67,15.606-81.148-41.351-81.148-41.351S238.522,781.811,276.964,770.023z"/>
	<path fill="#F8F8F8" d="M342.495,865.005c14.155,15.074,32.892,43.31,32.892,43.31s-49.351-4.777-64.033-19.294
		c-18.966-18.768-40.186-40.873-40.186-40.873S323.369,844.655,342.495,865.005z"/>
	<path fill="#F8F8F8" d="M299.853,901.759c16.802,19.355,46.33,1.664,75.262,18.368c28.954,16.718,39.194,45.793,39.194,45.793
		s-60.017-23.077-91.755-18.245c-31.741,4.841-71.891-12.555-83.946-48.466c-12.081-35.912-59.067-51.47-59.067-51.47
		s49.371-6.626,69.652-0.313C284.539,858.412,283.055,882.396,299.853,901.759z"/>
	<path fill="#F8F8F8" d="M230.084,1017.7c9.032-39.189,83.578-52.035,83.578-52.035c-10.613,9.694-22.149,55.774-20.455,84.099
		c1.675,28.298-63.841,54.571-63.841,54.571S221.069,1056.881,230.084,1017.7z"/>
	<path fill="#F8F8F8" d="M277.046,1104.687c27.188-25.115,47.215-11.84,72.38-16.709c25.159-4.867,30.229-45.52,59.17-62.221
		c28.95-16.709,58.715-18.806,58.715-18.806s-43.577,32.021-57.381,88.649c-7.601,31.196-56.196,51.653-93.33,44.141
		c-37.148-7.507-74.107,25.425-74.107,25.425S261.441,1119.083,277.046,1104.687z"/>
	<path fill="#F8F8F8" d="M453.601,1042.384c-7.355,24.415,6.676,35.768,17.366,53.815c10.712,18.045-8.018,56.836-8.018,56.836
		s-18.712-9.356-29.402-47.473C422.835,1067.449,453.601,1042.384,453.601,1042.384z"/>
	<path fill="#F8F8F8" d="M509.61,882.934c0,0,49.982-40.445,61.673-70.344c11.678-29.905,46.811-55.978,83.938-48.467
		c37.148,7.504,74.115-25.424,74.115-25.424s-18.955,46.082-34.559,60.476c-27.185,25.122-47.216,11.84-72.378,16.713
		c-25.163,4.872-24.615,39.289-53.548,55.988C539.904,888.601,509.61,882.934,509.61,882.934z"/>
	<path fill="#F8F8F8" d="M671.555,871.273c0,0,1.246,20.885-26.413,49.195c-27.642,28.328-64.734,14.226-64.734,14.226
		c24.817-5.844,27.629-23.672,37.913-41.953C628.599,874.443,671.555,871.273,671.555,871.273z"/>
	<path fill="#F8F8F8" d="M578.958,878.028c0,0,28.81-40.355,48.724-45.802c25.734-7.051,55.484-14.37,55.484-14.37
		s-23.077,46.948-50.262,53.335C612.771,875.909,578.958,878.028,578.958,878.028z"/>
	<path fill="#F8F8F8" d="M678.625,854.103c-1.684-28.298,100.994-65.856,100.994-65.856s-15.713,34.051-24.732,73.235
		c-9.031,39.183-87.764,48.919-87.764,48.919C677.736,900.709,680.314,882.433,678.625,854.103z"/>
	<path fill="#F8F8F8" d="M601.48,890.962c0,0-11.62,34.034-40.851,33.54c-29.237-0.493-44.133-20.281-44.133-20.281
		C540.648,905.93,552.592,874.488,601.48,890.962z"/>
	<path fill="#F8F8F8" d="M544.97,938.2c10.595,21.771,41.358,32.751,51.525,83.328c0,0-30.938,4.011-49.464-18.605
		C516.498,965.665,544.97,938.2,544.97,938.2z"/>
	<path fill="#F8F8F8" d="M603.381,1037.011c20.984-0.252,45.212,35.369,45.212,35.369s-17.466,11.516-55.814,1.728
		c-38.357-9.783-44.688-48.971-44.688-48.971C565.553,1043.722,582.4,1037.236,603.381,1037.011z"/>
	<path fill="#F8F8F8" d="M666.992,1069.913c23.663-15.614,79.169,27.992,79.169,27.992s-8.599,10.72-46.87,23.029
		c-50.699,16.304-104.107-26.211-104.107-26.211C608.891,1099.069,643.31,1085.541,666.992,1069.913z"/>
	<path fill="#F8F8F8" d="M629.335,1038.862c-14.156-15.066-32.892-43.309-32.892-43.309s49.349,4.776,64.026,19.301
		c18.974,18.761,40.188,40.871,40.188,40.871S648.458,1059.212,629.335,1038.862z"/>
	<path fill="#F8F8F8" d="M671.973,1002.11c-16.8-19.359-46.33-1.669-75.261-18.37c-28.958-16.71-39.192-45.793-39.192-45.793
		s60.013,23.077,91.756,18.245c31.733-4.834,71.884,12.553,83.945,48.467c12.073,35.92,59.063,51.463,59.063,51.463
		s-49.369,6.63-69.653,0.316C687.289,1045.456,688.774,1021.466,671.973,1002.11z"/>
	<path fill="#F8F8F8" d="M772.271,1032.594c-20.057-26.372-48.901-66.929-48.901-66.929c28.846,11.129,74.306-9.292,102.382-10.444
		c28.074-1.151,41.45,66.584,41.45,66.584S792.326,1058.978,772.271,1032.594z"/>
	<path fill="#F8F8F8" d="M848.484,914.623c-12.063,18.853-40.114,47.118-96.269,39.936c-56.153-7.173-109.635-16.61-109.635-16.61
		c158.433-20.31,100.258-98.85,163.786-79.592c28.074,8.518,60.836,3.125,60.836,3.125S874.277,874.313,848.484,914.623z"/>
	<path fill="#F8F8F8" d="M772.789,777.859c-23.484,1.188-65.474,29.688-65.474,29.688s9.812-47.22,34.331-62.523
		c21.931-13.683,77.327-35.248,94.803-40.654C836.449,704.369,810.366,775.949,772.789,777.859z"/>
	<path fill="#F8F8F8" d="M194.29,790.103c26.842,22.366,55.875,42.279,55.875,42.279s-61.429,18.632-97.192-2.802
		c-31.98-19.179-45.219-58.066-64.394-76.989C88.579,752.591,167.458,767.746,194.29,790.103z"/>
	<path fill="#F8F8F8" d="M179.542,866.756c49.043,4.106,56.572,66.332,56.572,66.332s-66.51,3.847-82.432-22.31
		c-15.914-26.146-56.62-38.938-56.62-38.938S130.495,862.642,179.542,866.756z"/>
	<path fill="#F8F8F8" d="M213.477,1179.085c-32.597,18.109-72.889,10.124-98.867,17.277c0,0,52.564-60.74,85.339-72.799
		c32.798-12.057,64.557-27.248,64.557-27.248S249.93,1158.833,213.477,1179.085z"/>
	<path fill="#F8F8F8" d="M311.005,1249.264c-18.351,32.843-80.92,30.898-80.92,30.898s26.834-33.951,24.909-64.289
		c-1.929-30.34,25.476-54.302,46.325-59.313c20.854-5.015,20.854-5.015,20.854-5.015
		C298.45,1167.188,329.346,1216.433,311.005,1249.264z"/>
	<path fill="#F8F8F8" d="M352.357,1364.539c0,0,5.427-66.854-18.634-137.711c-24.067-70.864,53.501-77.812,70.205-109.641
		c0,0-3.692,89.716,10.38,124.345C425.508,1269.079,352.357,1364.539,352.357,1364.539z"/>
	<path fill="#F8F8F8" d="M474.272,1300.357c0,0,1.389-51.734-28.028-79.14c-29.422-27.412-14.966-91.586-14.966-91.586
		c3.095,14.046,17.628,25.409,43.009,38.108C499.632,1180.43,474.272,1300.357,474.272,1300.357z"/>
	<path fill="#F8F8F8" d="M511.942,1395.709c0,0-26.313-75.887-20.374-110.299c5.954-34.44,8.685-69.537,8.685-69.537
		s46.847,43.876,46.167,85.569C545.802,1338.726,518.742,1369.644,511.942,1395.709z"/>
	<path fill="#F8F8F8" d="M578.958,1193.185c-25.07,28.424,0,88.459,0,88.459s-60.517-51.727-65.188-72.445
		c-8.162-36.104,13.354-46.813,21.721-71.046c8.368-24.224-21.721-40.942-21.721-74.368c0-33.421,20.059-56.832,20.059-56.832
		s10.025,63.514,30.077,88.587C583.967,1120.603,604.027,1164.786,578.958,1193.185z"/>
	<path fill="#F8F8F8" d="M655.402,1270.949c-2.127,41.448-24.338,70.855-24.338,70.855s-41.528-36.09-40.411-70.855
		c1.12-34.766,7.686-81.152,7.686-81.152C606.479,1216.135,657.526,1229.493,655.402,1270.949z"/>
	<path fill="#F8F8F8" d="M679.318,1300.357c0,0,6.276-57.479-23.917-70.864c-30.204-13.358-67.793-77.902-76.444-143.475
		c0,0,40.722,74.982,121.699,79.146C781.626,1169.329,679.318,1300.357,679.318,1300.357z"/>
	<path fill="#F8F8F8" d="M731.482,1165.166c-14.702-17.892-67.511-20.864-67.511-20.864s55.082-31.213,82.189-19.636
		c27.107,11.57,54.852,46.67,54.852,46.67S748.964,1186.464,731.482,1165.166z"/>
	<path fill="#F8F8F8" d="M777.535,1113.772c-26.846-22.381-55.877-42.286-55.877-42.286s61.432-18.634,97.195,2.81
		c31.979,19.165,45.22,58.059,64.397,76.979C883.25,1151.274,804.37,1136.128,777.535,1113.772z"/>
</g>
<g opacity="0.1">
	<path fill="#F8F8F8" d="M122.826,183.693c0,0-17.086-19.555-6.226-37.656c10.86-18.106,28.62-20.281,28.62-20.281
		C135.43,140.246,150.782,159.07,122.826,183.693z"/>
	<path fill="#F8F8F8" d="M150.102,221.289c-4.882,18.642-11.051,39.886-11.051,39.886s-21.026-31.387-15.211-50.688
		c4.318-14.304,15.211-36.213,15.211-36.213S153.882,206.868,150.102,221.289z"/>
	<path fill="#F8F8F8" d="M-141.72,109.675c0,0,31.745-34.89,59.745-30.194c28,4.703,65.947,17.249,65.947,17.249
		s-12.631,0-45.332,24.17C-89.36,141.589-122.412,119.707-141.72,109.675z"/>
	<path fill="#F8F8F8" d="M-87.596,193.151c-27.445,9.073-43.378-6.895-43.378-6.895s17.47,0,26.067-21.759
		c10.756-27.232,34.661-28.181,34.661-28.181S-60.148,184.078-87.596,193.151z"/>
	<path fill="#F8F8F8" d="M306.897-117.437c0,0,4.601,45.022-29.293,55.729c-33.896,10.703-58.905,9.549-58.905,9.549
		s26.637-15.488,33.681-36.442C259.432-109.557,306.897-117.437,306.897-117.437z"/>
	<path fill="#F8F8F8" d="M248.82-101.202c-11.967,27.747-71.78,78.164-71.78,78.164s32.871-65.615,8.587-94.582
		c-24.279-28.965,9.507-57.937,20.615-75.318C206.242-192.938,260.781-128.952,248.82-101.202z"/>
	<path fill="#F8F8F8" d="M137.213-14.784c-7.733-13.036,5.792-41.046,5.792-41.046s13.515,6.757,21.236,34.282
		c7.733,27.512-14.486,45.626-14.486,45.626C155.074,6.451,144.932-1.745,137.213-14.784z"/>
	<path fill="#F8F8F8" d="M109.314,74.531c9.791-14.494-7.253-54.803,20.701-79.426c0,0,5.809,16.548,6.228,37.655
		C136.771,59.404,109.314,74.531,109.314,74.531z"/>
	<path fill="#F8F8F8" d="M129.104,113.15c-0.253-0.237-0.542-0.424-0.854-0.58C128.802,112.932,129.104,113.15,129.104,113.15z"/>
	<path fill="#F8F8F8" d="M20.269,147.708c14.539-3.411,38.961-4.931,38.961-4.931s-20.803,29.136-35.187,33.069
		C5.456,180.94-16.028,186.23-16.028,186.23S0.637,152.319,20.269,147.708z"/>
	<path fill="#F8F8F8" d="M11.431,112.121c19.962-20.462,46.75-10.267,46.75-10.267c-17.923,4.21-19.95,17.086-27.38,30.291
		C23.378,145.359-7.64,147.649-7.64,147.649S-8.54,132.563,11.431,112.121z"/>
	<path fill="#F8F8F8" d="M42.966,133.436c0,0,11.745-12.797,29.497-24.225c24.305-15.647,50.575-0.059,55.723,3.313
		C117.756,107.535,77.159,144.962,42.966,133.436z"/>
	<path fill="#F8F8F8" d="M50.175-40.779c0,0-15.088-19.979-25.42-53.988c-10.327-34.016,29.414-55.669,29.414-55.669
		s20.328,43.612,7.028,61.269C47.896-71.511,50.175-40.779,50.175-40.779z"/>
	<path fill="#F8F8F8" d="M70.099-84.309c18.107-20.52,10.86-55.527,10.86-55.527s21.97,28.491,25.349,43.447
		c5.895,26.071-9.649,33.807-15.685,51.307c-6.045,17.5,15.685,29.574,15.685,53.704c0,24.137-3.817,47.11-3.817,47.11
		S84.577,3.793,70.099-14.308C55.614-32.408,51.993-63.794,70.099-84.309z"/>
	<path fill="#F8F8F8" d="M102.746-42.492c4.878-18.642,11.052-39.886,11.052-39.886s21.024,31.387,15.204,50.688
		c-4.316,14.297-15.204,36.214-15.204,36.214S98.96-28.063,102.746-42.492z"/>
	<path fill="#F8F8F8" d="M122.342-151.426c-4.304,24.874-6.275,50.224-6.275,50.224s-33.832-31.695-33.339-61.807
		c0.441-26.917,19.985-49.246,24.896-68.07C107.625-231.079,126.628-176.277,122.342-151.426z"/>
	<path fill="#F8F8F8" d="M46.562-23.038C34.121-42.394-2.797-44.236-28.659-54.559c-25.855-10.325-25.315-111.586-25.315-111.586
		c13.048,18.346,69.232,46.681,75.576,83.767C26.779-52.125,46.562-23.038,46.562-23.038z"/>
	<path fill="#F8F8F8" d="M49.903-9.481C86.694-6.128,90.86,45.557,90.86,45.557C78.253,32.143,56.74,27.796,41.591,27.959
		C26.433,28.142,8.94,8.482,8.94,8.482S21.439-12.07,49.903-9.481z"/>
	<path fill="#F8F8F8" d="M82.282,52.576C92.53,71.035,81.518,96.73,81.518,96.73c0-24.137-27.61-21.071-34.956-57.588
		C46.562,39.142,72.039,34.116,82.282,52.576z"/>
	<path fill="#F8F8F8" d="M134.822-66.446c-18.306-9.168,15.892-73.39,15.892-73.39s1.683,14.981,22.929,34.766
		c21.251,19.799-7.767,66.14-7.767,66.14C163.647-49.073,153.146-57.282,134.822-66.446z"/>
	<path fill="#F8F8F8" d="M-58.329-73.689c15.439,5.065,24.858,26.068,24.858,26.068s-25.812,6.519-45.365,4.224
		c-19.554-2.296-38.381-15.805-34.036-17.256C-108.525-62.105-73.766-78.757-58.329-73.689z"/>
	<path fill="#F8F8F8" d="M-24.473-41.97C3.294-50.469,38.21-18.253,38.21-18.253C28.313-21.391,17.373-6.764,0.273,4.523
		c-17.093,11.271-58.602-29.86-58.602-29.86S-52.235-33.458-24.473-41.97z"/>
	<path fill="#F8F8F8" d="M22.851,26.622c10.222,10.886,23.753,31.275,23.753,31.275s-35.64-3.45-46.242-13.932
		c-13.697-13.554-29.021-29.519-29.021-29.519S9.039,11.926,22.851,26.622z"/>
	<path fill="#F8F8F8" d="M-7.944,53.166c12.133,13.978,33.458,1.2,54.351,13.264C67.317,78.504,74.712,99.5,74.712,99.5
		S31.371,82.834,8.45,86.324c-22.923,3.496-51.917-9.067-60.624-35c-8.723-25.935-42.656-37.17-42.656-37.17
		s35.655-4.784,50.301-0.225C-19.003,21.86-20.075,39.181-7.944,53.166z"/>
	<path fill="#F8F8F8" d="M-58.329,136.893c6.522-28.302,60.357-37.577,60.357-37.577c-7.665,6.999-15.995,40.277-14.772,60.732
		c1.21,20.436-46.104,39.41-46.104,39.41S-64.838,165.188-58.329,136.893z"/>
	<path fill="#F8F8F8" d="M-24.414,199.712c19.632-18.139,34.097-8.551,52.271-12.067c18.168-3.515,21.83-32.874,42.729-44.934
		c20.908-12.067,42.403-13.58,42.403-13.58s-31.471,23.123-41.438,64.02c-5.489,22.529-40.584,37.303-67.4,31.876
		c-26.828-5.42-53.518,18.361-53.518,18.361S-35.684,210.109-24.414,199.712z"/>
	<path fill="#F8F8F8" d="M103.086,154.72c-5.313,17.631,4.82,25.83,12.542,38.862c7.736,13.032-5.791,41.047-5.791,41.047
		s-13.513-6.757-21.232-34.283C80.869,172.82,103.086,154.72,103.086,154.72z"/>
	<path fill="#F8F8F8" d="M143.535,39.569c0,0,36.097-29.208,44.538-50.798c8.434-21.596,33.805-40.427,60.618-35
		c26.828,5.417,53.523-18.361,53.523-18.361s-13.688,33.278-24.957,43.672c-19.632,18.143-34.097,8.551-52.269,12.07
		c-18.172,3.519-17.775,28.374-38.669,40.434C165.412,43.663,143.535,39.569,143.535,39.569z"/>
	<path fill="#F8F8F8" d="M260.485,31.148c0,0,0.9,15.083-19.074,35.529c-19.962,20.458-46.75,10.273-46.75,10.273
		c17.923-4.22,19.953-17.095,27.379-30.298C229.464,33.438,260.485,31.148,260.485,31.148z"/>
	<path fill="#F8F8F8" d="M193.616,36.027c0,0,20.806-29.143,35.186-33.076C247.387-2.14,268.87-7.426,268.87-7.426
		s-16.666,33.905-36.296,38.517C218.035,34.498,193.616,36.027,193.616,36.027z"/>
	<path fill="#F8F8F8" d="M265.591,18.749c-1.216-20.435,72.935-47.56,72.935-47.56s-11.348,24.59-17.86,52.889
		c-6.522,28.295-63.381,35.326-63.381,35.326C264.949,52.406,266.811,39.208,265.591,18.749z"/>
	<path fill="#F8F8F8" d="M209.88,45.368c0,0-8.392,24.577-29.5,24.221c-21.113-0.355-31.871-14.646-31.871-14.646
		C165.95,56.176,174.574,33.471,209.88,45.368z"/>
	<path fill="#F8F8F8" d="M169.071,79.481c7.651,15.723,29.867,23.651,37.209,60.178c0,0-22.343,2.896-35.721-13.437
		C148.508,99.316,169.071,79.481,169.071,79.481z"/>
	<path fill="#F8F8F8" d="M211.253,150.839c15.153-0.183,32.651,25.542,32.651,25.542s-12.614,8.317-40.309,1.247
		c-27.7-7.064-32.271-35.363-32.271-35.363C183.935,155.685,196.101,151.001,211.253,150.839z"/>
	<path fill="#F8F8F8" d="M257.19,174.601c17.089-11.278,57.174,20.213,57.174,20.213s-6.209,7.742-33.848,16.632
		c-36.613,11.774-75.183-18.928-75.183-18.928C215.231,195.655,240.087,185.885,257.19,174.601z"/>
	<path fill="#F8F8F8" d="M229.996,152.176c-10.223-10.879-23.754-31.276-23.754-31.276s35.638,3.45,46.239,13.938
		c13.701,13.548,29.021,29.515,29.021,29.515S243.806,166.872,229.996,152.176z"/>
	<path fill="#F8F8F8" d="M260.788,125.635c-12.132-13.981-33.458-1.207-54.352-13.267c-20.912-12.067-28.304-33.069-28.304-33.069
		s43.34,16.666,66.263,13.176c22.918-3.49,51.912,9.066,60.624,35c8.72,25.94,42.653,37.166,42.653,37.166
		s-35.653,4.788-50.301,0.228C271.848,156.937,272.921,139.613,260.788,125.635z"/>
	<path fill="#F8F8F8" d="M333.22,147.649c-14.483-19.046-35.314-48.333-35.314-48.333c20.831,8.036,53.662-6.712,73.937-7.543
		s29.935,48.085,29.935,48.085S347.701,166.702,333.22,147.649z"/>
	<path fill="#F8F8F8" d="M388.257,62.454c-8.71,13.616-28.969,34.029-69.521,28.84c-40.553-5.179-79.174-11.995-79.174-11.995
		c114.415-14.667,72.403-71.384,118.281-57.478c20.274,6.151,43.934,2.257,43.934,2.257S406.884,33.343,388.257,62.454z"/>
	<path fill="#F8F8F8" d="M333.592-36.312c-16.958,0.858-47.282,21.439-47.282,21.439s7.085-34.1,24.792-45.152
		c15.838-9.879,55.845-25.455,68.464-29.358C379.565-89.383,360.73-37.691,333.592-36.312z"/>
	<path fill="#F8F8F8" d="M-84.178-27.47C-64.794-11.317-43.827,3.062-43.827,3.062s-44.362,13.456-70.188-2.022
		c-23.095-13.851-32.656-41.934-46.503-55.599C-160.519-54.559-103.555-43.614-84.178-27.47z"/>
	<path fill="#F8F8F8" d="M-94.83,27.887c35.418,2.965,40.855,47.902,40.855,47.902s-48.031,2.778-59.529-16.111
		c-11.493-18.883-40.888-28.119-40.888-28.119S-130.249,24.917-94.83,27.887z"/>
	<path fill="#F8F8F8" d="M-70.322,253.439c-23.54,13.078-52.637,7.312-71.398,12.478c0,0,37.96-43.864,61.629-52.572
		c23.685-8.707,46.621-19.679,46.621-19.679S-43.997,238.816-70.322,253.439z"/>
	<path fill="#F8F8F8" d="M0.109,304.12c-13.252,23.716-58.438,22.314-58.438,22.314s19.379-24.519,17.987-46.428
		c-1.393-21.909,18.399-39.213,33.455-42.833c15.061-3.621,15.061-3.621,15.061-3.621C-8.958,244.849,13.355,280.41,0.109,304.12z"
		/>
	<path fill="#F8F8F8" d="M29.973,387.368c0,0,3.918-48.28-13.457-99.45c-17.38-51.176,38.638-56.192,50.699-79.178
		c0,0-2.666,64.789,7.496,89.797C82.799,318.431,29.973,387.368,29.973,387.368z"/>
	<path fill="#F8F8F8" d="M118.015,341.019c0,0,1.003-37.361-20.241-57.151c-21.248-19.796-10.808-66.14-10.808-66.14
		c2.236,10.143,12.731,18.348,31.059,27.519C136.329,254.411,118.015,341.019,118.015,341.019z"/>
	<path fill="#F8F8F8" d="M145.219,409.878c0,0-19.002-54.803-14.713-79.654c4.3-24.871,6.272-50.218,6.272-50.218
		s33.831,31.687,33.34,61.795C169.671,368.727,150.129,391.054,145.219,409.878z"/>
	<path fill="#F8F8F8" d="M193.616,263.621c-18.105,20.527,0,63.883,0,63.883s-43.703-37.355-47.077-52.318
		c-5.895-26.07,9.644-33.807,15.686-51.307c6.043-17.493-15.686-29.567-15.686-53.707c0-24.134,14.485-41.041,14.485-41.041
		s7.24,45.867,21.72,63.974C197.233,211.206,211.719,243.114,193.616,263.621z"/>
	<path fill="#F8F8F8" d="M248.82,319.781c-1.536,29.932-17.576,51.169-17.576,51.169s-29.991-26.064-29.184-51.169
		c0.809-25.106,5.551-58.606,5.551-58.606C213.491,280.195,250.354,289.842,248.82,319.781z"/>
	<path fill="#F8F8F8" d="M266.091,341.019c0,0,4.534-41.51-17.271-51.177c-21.812-9.646-48.957-56.257-55.204-103.611
		c0,0,29.407,54.151,87.886,57.157C339.975,246.395,266.091,341.019,266.091,341.019z"/>
	<path fill="#F8F8F8" d="M303.763,243.388c-10.617-12.921-48.753-15.067-48.753-15.067s39.778-22.542,59.354-14.18
		c19.576,8.355,39.611,33.702,39.611,33.702S316.388,258.769,303.763,243.388z"/>
	<path fill="#F8F8F8" d="M337.02,206.274c-19.387-16.163-40.352-30.539-40.352-30.539s44.363-13.456,70.192,2.029
		c23.093,13.841,32.654,41.928,46.504,55.592C413.364,233.356,356.399,222.418,337.02,206.274z"/>
</g>
<g opacity="0.1">
	<path fill="#F8F8F8" d="M435.592,408.59c0,0-5.116-5.855-1.864-11.275c3.253-5.422,8.57-6.072,8.57-6.072
		C439.367,395.581,443.963,401.217,435.592,408.59z"/>
	<path fill="#F8F8F8" d="M443.759,419.848c-1.461,5.582-3.309,11.943-3.309,11.943s-6.296-9.398-4.556-15.178
		c1.294-4.283,4.556-10.844,4.556-10.844S444.892,415.53,443.759,419.848z"/>
	<path fill="#F8F8F8" d="M356.376,386.426c0,0,9.506-10.447,17.891-9.041c8.386,1.408,19.747,5.166,19.747,5.166
		s-3.781,0-13.573,7.236C372.056,395.983,362.159,389.43,356.376,386.426z"/>
	<path fill="#F8F8F8" d="M372.583,411.422c-8.218,2.717-12.988-2.064-12.988-2.064s5.23,0,7.806-6.516
		c3.221-8.154,10.379-8.438,10.379-8.438S380.802,408.706,372.583,411.422z"/>
	<path fill="#F8F8F8" d="M490.71,318.42c0,0,1.378,13.482-8.771,16.688c-10.15,3.205-17.64,2.859-17.64,2.859
		s7.978-4.637,10.086-10.912C476.498,320.78,490.71,318.42,490.71,318.42z"/>
	<path fill="#F8F8F8" d="M473.32,323.282c-3.584,8.309-21.494,23.406-21.494,23.406s9.844-19.648,2.572-28.322
		c-7.271-8.673,2.846-17.348,6.172-22.553C460.57,295.813,476.902,314.973,473.32,323.282z"/>
	<path fill="#F8F8F8" d="M439.9,349.159c-2.314-3.902,1.733-12.291,1.733-12.291s4.047,2.023,6.359,10.266
		c2.314,8.238-4.338,13.662-4.338,13.662C445.249,355.518,442.212,353.063,439.9,349.159z"/>
	<path fill="#F8F8F8" d="M431.546,375.903c2.932-4.34-2.172-16.41,6.199-23.783c0,0,1.738,4.955,1.864,11.275
		C439.768,371.374,431.546,375.903,431.546,375.903z"/>
	<path fill="#F8F8F8" d="M437.472,387.467c-0.075-0.07-0.162-0.127-0.256-0.174C437.382,387.403,437.472,387.467,437.472,387.467z"
		/>
	<path fill="#F8F8F8" d="M404.882,397.815c4.354-1.021,11.667-1.477,11.667-1.477s-6.229,8.725-10.536,9.902
		c-5.565,1.525-11.999,3.109-11.999,3.109S399.004,399.196,404.882,397.815z"/>
	<path fill="#F8F8F8" d="M402.236,387.159c5.979-6.127,13.999-3.074,13.999-3.074c-5.366,1.262-5.975,5.117-8.198,9.07
		c-2.223,3.957-11.511,4.643-11.511,4.643S396.256,393.28,402.236,387.159z"/>
	<path fill="#F8F8F8" d="M411.679,393.542c0,0,3.518-3.832,8.832-7.254c7.278-4.686,15.146-0.018,16.687,0.992
		C434.074,385.786,421.917,396.993,411.679,393.542z"/>
	<path fill="#F8F8F8" d="M413.837,341.375c0,0-4.518-5.982-7.611-16.166c-3.092-10.186,8.809-16.67,8.809-16.67
		s6.087,13.059,2.104,18.346C413.155,332.172,413.837,341.375,413.837,341.375z"/>
	<path fill="#F8F8F8" d="M419.804,328.34c5.422-6.145,3.252-16.627,3.252-16.627s6.578,8.531,7.591,13.01
		c1.766,7.807-2.89,10.123-4.697,15.363c-1.811,5.24,4.697,8.855,4.697,16.082s-1.144,14.105-1.144,14.105
		s-5.364-15.553-9.699-20.973C415.466,343.881,414.382,334.483,419.804,328.34z"/>
	<path fill="#F8F8F8" d="M429.58,340.862c1.461-5.582,3.31-11.943,3.31-11.943s6.296,9.398,4.554,15.178
		c-1.292,4.281-4.554,10.844-4.554,10.844S428.447,345.182,429.58,340.862z"/>
	<path fill="#F8F8F8" d="M435.447,308.243c-1.288,7.449-1.879,15.039-1.879,15.039s-10.131-9.49-9.982-18.507
		c0.133-8.06,5.984-14.746,7.455-20.383C431.041,284.392,436.731,300.801,435.447,308.243z"/>
	<path fill="#F8F8F8" d="M412.755,346.688c-3.725-5.797-14.779-6.348-22.522-9.439c-7.742-3.092-7.58-33.412-7.58-33.412
		c3.905,5.493,20.729,13.978,22.63,25.082C406.832,337.977,412.755,346.688,412.755,346.688z"/>
	<path fill="#F8F8F8" d="M413.756,350.747c11.018,1.004,12.266,16.48,12.266,16.48c-3.775-4.016-10.218-5.318-14.755-5.27
		c-4.538,0.055-9.775-5.832-9.775-5.832S405.234,349.971,413.756,350.747z"/>
	<path fill="#F8F8F8" d="M423.453,369.329c3.068,5.527-0.229,13.223-0.229,13.223c0-7.229-8.268-6.311-10.468-17.244
		C412.755,365.307,420.384,363.801,423.453,369.329z"/>
	<path fill="#F8F8F8" d="M439.185,333.69c-5.481-2.746,4.759-21.977,4.759-21.977s0.504,4.486,6.865,10.41
		c6.363,5.93-2.324,19.805-2.324,19.805C447.816,338.891,444.671,336.434,439.185,333.69z"/>
	<path fill="#F8F8F8" d="M381.347,331.52c4.623,1.518,7.443,7.807,7.443,7.807s-7.729,1.951-13.584,1.264
		c-5.854-0.688-11.492-4.732-10.191-5.166C366.317,334.989,376.725,330.002,381.347,331.52z"/>
	<path fill="#F8F8F8" d="M391.486,341.018c8.313-2.545,18.77,7.102,18.77,7.102c-2.964-0.939-6.24,3.441-11.359,6.82
		c-5.118,3.375-17.549-8.941-17.549-8.941S383.172,343.567,391.486,341.018z"/>
	<path fill="#F8F8F8" d="M405.656,361.557c3.061,3.26,7.112,9.365,7.112,9.365s-10.672-1.033-13.848-4.172
		c-4.102-4.059-8.688-8.838-8.688-8.838S401.52,357.157,405.656,361.557z"/>
	<path fill="#F8F8F8" d="M396.435,369.506c3.634,4.186,10.019,0.359,16.274,3.971c6.261,3.615,8.476,9.902,8.476,9.902
		s-12.979-4.99-19.842-3.945c-6.862,1.047-15.545-2.715-18.151-10.48c-2.612-7.766-12.773-11.129-12.773-11.129
		s10.677-1.434,15.063-0.068C393.123,360.131,392.802,365.319,396.435,369.506z"/>
	<path fill="#F8F8F8" d="M381.347,394.577c1.953-8.475,18.074-11.252,18.074-11.252c-2.295,2.096-4.79,12.061-4.424,18.186
		c0.362,6.119-13.805,11.801-13.805,11.801S379.398,403.049,381.347,394.577z"/>
	<path fill="#F8F8F8" d="M391.503,413.387c5.879-5.432,10.209-2.561,15.651-3.613c5.439-1.053,6.536-9.844,12.795-13.455
		c6.261-3.613,12.695-4.066,12.695-4.066s-9.423,6.924-12.407,19.17c-1.644,6.746-12.152,11.17-20.183,9.545
		c-8.032-1.623-16.024,5.498-16.024,5.498S388.128,416.5,391.503,413.387z"/>
	<path fill="#F8F8F8" d="M429.681,399.915c-1.59,5.279,1.443,7.734,3.757,11.637c2.315,3.902-1.734,12.291-1.734,12.291
		s-4.046-2.022-6.357-10.266C423.029,405.334,429.681,399.915,429.681,399.915z"/>
	<path fill="#F8F8F8" d="M441.793,365.434c0,0,10.809-8.746,13.337-15.211c2.525-6.467,10.122-12.105,18.15-10.48
		c8.032,1.623,16.026-5.498,16.026-5.498s-4.099,9.965-7.473,13.078c-5.879,5.432-10.211,2.561-15.652,3.613
		c-5.44,1.055-5.321,8.496-11.578,12.107C448.344,366.661,441.793,365.434,441.793,365.434z"/>
	<path fill="#F8F8F8" d="M476.813,362.913c0,0,0.271,4.518-5.712,10.639c-5.977,6.127-13.998,3.076-13.998,3.076
		c5.367-1.264,5.976-5.119,8.198-9.072C467.524,363.598,476.813,362.913,476.813,362.913z"/>
	<path fill="#F8F8F8" d="M456.79,364.374c0,0,6.229-8.727,10.536-9.904c5.563-1.523,11.998-3.107,11.998-3.107
		s-4.99,10.152-10.869,11.533C464.101,363.917,456.79,364.374,456.79,364.374z"/>
	<path fill="#F8F8F8" d="M478.341,359.2c-0.363-6.119,21.84-14.24,21.84-14.24s-3.397,7.363-5.348,15.836
		c-1.953,8.473-18.979,10.578-18.979,10.578C478.15,369.278,478.707,365.327,478.341,359.2z"/>
	<path fill="#F8F8F8" d="M461.66,367.17c0,0-2.513,7.359-8.834,7.254c-6.322-0.107-9.543-4.387-9.543-4.387
		C448.505,370.407,451.087,363.608,461.66,367.17z"/>
	<path fill="#F8F8F8" d="M449.44,377.385c2.291,4.709,8.942,7.082,11.142,18.02c0,0-6.689,0.867-10.695-4.023
		C443.283,383.325,449.44,377.385,449.44,377.385z"/>
	<path fill="#F8F8F8" d="M462.071,398.752c4.538-0.055,9.775,7.648,9.775,7.648s-3.775,2.49-12.068,0.373
		c-8.294-2.115-9.663-10.588-9.663-10.588C453.89,400.204,457.534,398.801,462.071,398.752z"/>
	<path fill="#F8F8F8" d="M475.826,405.868c5.117-3.377,17.121,6.053,17.121,6.053s-1.859,2.318-10.137,4.98
		c-10.964,3.525-22.513-5.668-22.513-5.668C463.262,412.172,470.705,409.247,475.826,405.868z"/>
	<path fill="#F8F8F8" d="M467.683,399.153c-3.061-3.258-7.112-9.365-7.112-9.365s10.672,1.033,13.846,4.174
		c4.104,4.057,8.69,8.838,8.69,8.838S471.818,403.553,467.683,399.153z"/>
	<path fill="#F8F8F8" d="M476.904,391.206c-3.633-4.186-10.021-0.361-16.275-3.973c-6.262-3.613-8.475-9.902-8.475-9.902
		s12.977,4.99,19.842,3.945c6.861-1.045,15.544,2.715,18.152,10.48c2.61,7.768,12.771,11.129,12.771,11.129
		s-10.676,1.434-15.062,0.068C480.215,400.579,480.537,395.391,476.904,391.206z"/>
	<path fill="#F8F8F8" d="M498.592,397.797c-4.337-5.703-10.575-14.473-10.575-14.473c6.238,2.406,16.068-2.01,22.142-2.258
		c6.069-0.25,8.963,14.398,8.963,14.398S502.929,403.502,498.592,397.797z"/>
	<path fill="#F8F8F8" d="M515.073,372.288c-2.608,4.076-8.675,10.189-20.817,8.635c-12.143-1.551-23.708-3.592-23.708-3.592
		c34.261-4.391,21.681-21.375,35.418-17.211c6.071,1.842,13.155,0.676,13.155,0.676S520.65,363.571,515.073,372.288z"/>
	<path fill="#F8F8F8" d="M498.705,342.713c-5.078,0.256-14.158,6.42-14.158,6.42s2.121-10.211,7.424-13.521
		c4.742-2.957,16.722-7.621,20.5-8.791C512.47,326.821,506.83,342.299,498.705,342.713z"/>
	<path fill="#F8F8F8" d="M373.607,345.36c5.805,4.838,12.083,9.143,12.083,9.143s-13.284,4.029-21.018-0.605
		c-6.916-4.146-9.779-12.557-13.926-16.648C350.748,337.249,367.805,340.526,373.607,345.36z"/>
	<path fill="#F8F8F8" d="M370.417,361.936c10.605,0.889,12.234,14.344,12.234,14.344s-14.384,0.832-17.826-4.824
		c-3.441-5.654-12.243-8.42-12.243-8.42S359.813,361.047,370.417,361.936z"/>
	<path fill="#F8F8F8" d="M377.756,429.475c-7.049,3.916-15.762,2.189-21.38,3.736c0,0,11.367-13.135,18.455-15.742
		c7.092-2.607,13.959-5.893,13.959-5.893S385.639,425.096,377.756,429.475z"/>
	<path fill="#F8F8F8" d="M398.846,444.651c-3.968,7.102-17.499,6.682-17.499,6.682s5.804-7.342,5.388-13.902
		c-0.417-6.561,5.51-11.741,10.018-12.825c4.51-1.085,4.51-1.085,4.51-1.085C396.131,426.903,402.813,437.551,398.846,444.651z"/>
	<path fill="#F8F8F8" d="M407.789,469.579c0,0,1.174-14.457-4.029-29.779c-5.205-15.324,11.569-16.826,15.183-23.709
		c0,0-0.8,19.4,2.243,26.89C423.607,448.936,407.789,469.579,407.789,469.579z"/>
	<path fill="#F8F8F8" d="M434.152,455.7c0,0,0.301-11.188-6.062-17.113c-6.363-5.928-3.235-19.805-3.235-19.805
		c0.669,3.037,3.812,5.494,9.3,8.24C439.636,429.766,434.152,455.7,434.152,455.7z"/>
	<path fill="#F8F8F8" d="M442.298,476.319c0,0-5.689-16.41-4.406-23.853c1.287-7.446,1.878-15.037,1.878-15.037
		s10.131,9.488,9.983,18.504C449.62,463.997,443.768,470.682,442.298,476.319z"/>
	<path fill="#F8F8F8" d="M456.79,432.524c-5.421,6.146,0,19.129,0,19.129s-13.087-11.187-14.097-15.666
		c-1.767-7.808,2.888-10.123,4.696-15.363c1.81-5.238-4.696-8.854-4.696-16.082c0-7.227,4.338-12.289,4.338-12.289
		s2.168,13.734,6.504,19.156C457.873,416.829,462.21,426.383,456.79,432.524z"/>
	<path fill="#F8F8F8" d="M473.32,449.34c-0.46,8.963-5.264,15.322-5.264,15.322s-8.979-7.805-8.738-15.322
		s1.662-17.549,1.662-17.549C462.741,437.487,473.779,440.375,473.32,449.34z"/>
	<path fill="#F8F8F8" d="M478.492,455.7c0,0,1.356-12.43-5.172-15.324c-6.531-2.889-14.66-16.846-16.53-31.025
		c0,0,8.806,16.215,26.316,17.115C500.615,427.366,478.492,455.7,478.492,455.7z"/>
	<path fill="#F8F8F8" d="M489.772,426.465c-3.18-3.869-14.6-4.512-14.6-4.512s11.911-6.75,17.773-4.246
		c5.86,2.502,11.86,10.092,11.86,10.092S493.552,431.071,489.772,426.465z"/>
	<path fill="#F8F8F8" d="M499.73,415.352c-5.806-4.84-12.082-9.145-12.082-9.145s13.282-4.029,21.018,0.607
		c6.915,4.145,9.778,12.555,13.926,16.646C522.591,423.461,505.533,420.186,499.73,415.352z"/>
</g>
</svg>
